<?xml version="1.0" standalone="no"?>
<!DOCTYPE svg PUBLIC "-//W3C//DTD SVG 20010904//EN"
 "http://www.w3.org/TR/2001/REC-SVG-20010904/DTD/svg10.dtd">
<svg version="1.0" xmlns="http://www.w3.org/2000/svg"
 width="700.000000pt" height="700.000000pt" viewBox="0 0 700.000000 700.000000"
 preserveAspectRatio="xMidYMid meet">
<metadata>
Created by potrace 1.14, written by Peter Selinger 2001-2017
</metadata>
<g transform="translate(0.000000,700.000000) scale(0.100000,-0.100000)"
fill="#000000" stroke="none">
<path d="M3808 5818 c-43 -40 -78 -141 -132 -378 -30 -136 -41 -187 -62 -300
-2 -14 -7 -36 -9 -50 -3 -14 -7 -43 -11 -65 -3 -22 -7 -47 -9 -55 -5 -16 -60
-366 -70 -440 -8 -61 -12 -87 -21 -140 -4 -25 -8 -56 -9 -70 -3 -25 -23 -174
-30 -220 -4 -25 -7 -52 -21 -160 -3 -30 -8 -62 -9 -70 -1 -8 -6 -46 -10 -85
-4 -38 -9 -78 -11 -88 -2 -10 -6 -48 -9 -85 -3 -37 -8 -74 -10 -82 -3 -8 -7
-44 -10 -80 -3 -36 -7 -81 -10 -100 -4 -36 -22 -196 -31 -285 -3 -27 -7 -66
-9 -85 -3 -19 -7 -62 -10 -95 -3 -33 -7 -82 -10 -110 -2 -27 -7 -75 -9 -105
-5 -62 -18 -202 -22 -240 -1 -14 -2 -47 -3 -74 l-1 -49 -32 27 c-53 42 -175
98 -248 112 -14 3 -41 9 -60 13 -108 24 -298 3 -459 -50 -141 -47 -238 -108
-341 -213 -57 -58 -130 -161 -130 -183 0 -7 -4 -13 -10 -13 -5 0 -10 -8 -10
-18 0 -10 -5 -23 -12 -30 -7 -7 -9 -12 -5 -12 3 0 2 -12 -4 -26 -18 -48 -24
-98 -22 -189 3 -158 58 -282 177 -400 83 -81 163 -127 273 -156 92 -23 229
-24 325 -2 156 36 345 142 484 269 104 97 247 338 282 479 6 22 13 99 17 171
3 72 7 142 10 155 4 30 15 119 21 179 2 25 6 56 9 70 3 14 7 45 10 70 3 25 7
56 10 70 3 14 7 41 10 60 3 19 10 62 16 95 6 33 13 71 15 85 2 14 7 41 10 60
23 133 83 434 131 655 25 116 46 217 48 225 2 8 20 87 40 175 21 88 41 178 46
200 4 22 26 114 48 205 23 91 43 175 46 187 4 18 10 20 37 16 87 -13 273 -93
403 -173 224 -137 364 -317 424 -545 29 -114 31 -137 36 -360 4 -182 2 -210
-19 -310 -29 -133 -50 -212 -111 -420 -54 -186 -91 -339 -89 -375 3 -46 4 -50
19 -50 59 0 191 276 291 610 34 111 67 242 78 305 3 17 8 39 10 51 21 101 26
305 12 409 -19 135 -65 285 -126 405 -31 62 -114 204 -132 225 -5 6 -38 51
-75 100 -96 130 -154 199 -348 415 -64 72 -136 157 -154 184 -8 12 -18 23 -21
26 -17 14 -104 155 -129 211 -35 74 -76 212 -85 284 -4 28 -9 57 -11 65 -2 8
-6 26 -9 40 -26 152 -82 197 -158 128z"/>
</g>
</svg>
