<?xml version="1.0" encoding="UTF-8" standalone="no"?>
<!-- Created with Inkscape (http://www.inkscape.org/) -->

<svg
   width="120"
   height="120"
   viewBox="0 0 31.75 31.75"
   version="1.1"
   id="svg5"
   xml:space="preserve"
   inkscape:version="1.2.1 (9c6d41e410, 2022-07-14)"
   sodipodi:docname="icon.svg"
   xmlns:inkscape="http://www.inkscape.org/namespaces/inkscape"
   xmlns:sodipodi="http://sodipodi.sourceforge.net/DTD/sodipodi-0.dtd"
   xmlns="http://www.w3.org/2000/svg"
   xmlns:svg="http://www.w3.org/2000/svg"><sodipodi:namedview
     id="namedview7"
     pagecolor="#ffffff"
     bordercolor="#000000"
     borderopacity="0.25"
     inkscape:showpageshadow="2"
     inkscape:pageopacity="0.0"
     inkscape:pagecheckerboard="0"
     inkscape:deskcolor="#d1d1d1"
     inkscape:document-units="mm"
     showgrid="false"
     inkscape:zoom="4.0365797"
     inkscape:cx="-2.7250793"
     inkscape:cy="55.24479"
     inkscape:window-width="1920"
     inkscape:window-height="966"
     inkscape:window-x="0"
     inkscape:window-y="27"
     inkscape:window-maximized="1"
     inkscape:current-layer="layer1" /><defs
     id="defs2" /><g
     inkscape:label="Layer 1"
     inkscape:groupmode="layer"
     id="layer1"
     transform="translate(-88.607743,-163.45198)"><path
       d="m 99.307762,184.45972 c 1.305278,-0.53098 2.245368,-0.56498 3.148798,-0.27772 0.81174,0.28729 0.96029,0.57491 0.96029,0.57491 0.31231,-4.26946 1.41342,-13.68263 2.31396,-15.79456 0.58985,-0.69493 0.80293,-0.0971 0.91164,0.67038 0.23685,1.49209 0.56842,2.0842 2.22629,3.90786 2.10788,2.34471 2.72366,3.74206 2.72366,5.6131 -0.0237,1.75262 -1.40699,5.58144 -1.89471,5.35259 -0.21776,-0.52574 0.98602,-3.28622 1.00098,-4.72248 0.015,-1.43626 -0.0773,-2.69061 -1.02467,-3.7564 -0.75789,-0.89998 -2.55787,-1.68156 -3.05523,-1.68156 0,0 -2.17619,8.57704 -2.17619,11.84543 0,0.54473 -0.71701,1.95507 -1.39659,2.55021 -4.297655,3.75492 -8.107458,-1.86745 -3.738228,-4.28176 z"
       id="path293"
       style="stroke-width:0.23684"
       sodipodi:nodetypes="cccccccccccscc" /></g></svg>
